<svg xmlns="http://www.w3.org/2000/svg" viewBox="0 0 159.6 47.3">
<!-- SVG created with Arrow, by QuiverAI (https://quiver.ai) -->
  <style type="text/css">.cls-0 {fill:#1C1D21;}
.cls-1 {fill:#CBFE0F;}</style>
  <path class="cls-1" d="m29.7 25.8v18.5h-6.8v-17.6c0-3.7-2.2-6.7-6.6-6.9-4.4 0-6.9 3-6.9 7.7l-0.3-9c2-3.2 4.6-4.8 8.9-4.8 6.8 0 11.7 4.9 11.7 12.1zm-27.1-11.3h5.7l0.5 3.9 0.2 15.8v9.6h-6.4v-29.3z"/>
  <path class="cls-1" d="m125.8 25.8v18.5h-6.6v-17.8c-0.2-3.5-2.4-6.7-6.7-6.5s-7.3 3-7.4 7.9l-0.1-9.3c2-3.3 5-4.8 9-4.8 7.2-0.2 11.6 4.8 11.8 12zm-27.5-11.3h6.1l0.4 4.1 0.4 15.6-0.1 9.7h-6.8v-29.4z"/>
  <path class="cls-1" d="m137 30.2 0.2-1.1 11.9-14.6h8l-10.9 14 11.4 15.4h-8.1l-8.7-12c-1.4-1.6-2-1.7-3.8-1.7l0.1-28.9h-4.2c-1.3 0-3.1 1.1-3.2 3.1v39.5h7.3v-13.7z"/>
  <path class="cls-1" d="m79.8 13.8c-7.9 0.1-14.6 6.4-14.6 15.2 0 0.7 0.1 2.5 0.1 2.5h6.7c-0.1-0.9-0.2-1.4-0.1-2.7 0.3-4.8 3.3-8.7 8-8.8s8.3 3.1 8.4 8.5c0.2 5.4-3 9.9-8.7 9.9-2.7 0-4.6-1-6.3-3.2h-11.2c-2.9 0-5.6 0.6-7.2 1.7-1.9 1.3-3.7 2-6.7 2-4.2-0.1-7.5-2.3-8.2-7.5l22.5 0.1c0.3-3 0.2-6.5-1.2-9.6-2.2-4.5-6.5-7.9-12.8-8.1-8-0.3-15.7 6.2-15.8 15.3 0 8.7 5.7 15 14 15.2 4.9 0.1 7.7-0.7 11.1-2.7 2.3-1.4 3.9-1.7 6.8-1.7 3 0.1 4.6 0.7 6.1 1.6 2.6 1.7 5.2 2.8 8.8 2.8 9.4 0.2 15.8-5.8 15.8-15.2 0-8.6-6.5-15.2-15.5-15.3zm-32 5.7c5.4-0.1 7.9 3.3 8 6.9l-16 0.1c0.6-3.6 3.3-7 8-7z"/>
</svg>